<?xml version="1.0" encoding="utf-8"?>
<!-- Generator: Adobe Illustrator 24.1.2, SVG Export Plug-In . SVG Version: 6.00 Build 0)  -->
<svg version="1.1" id="Capa_1" xmlns="http://www.w3.org/2000/svg" xmlns:xlink="http://www.w3.org/1999/xlink" x="0px" y="0px"
	 viewBox="0 0 306.1 306.1" style="enable-background:new 0 0 306.1 306.1;" xml:space="preserve">
<style type="text/css">
	.st0{fill:#0085FF;}
	.st1{clip-path:url(#SVGID_2_);fill:#0085FF;}
	.st2{clip-path:url(#SVGID_4_);fill:#0085FF;}
	.st3{fill-rule:evenodd;clip-rule:evenodd;fill:#FFFFFF;}
	.st4{clip-path:url(#SVGID_6_);fill-rule:evenodd;clip-rule:evenodd;fill:#0085FF;}
	.st5{clip-path:url(#SVGID_8_);}
	.st6{clip-path:url(#SVGID_10_);}
	.st7{clip-path:url(#SVGID_12_);}
	.st8{clip-path:url(#SVGID_14_);}
	.st9{clip-path:url(#SVGID_16_);}
	.st10{clip-path:url(#SVGID_18_);}
	.st11{fill-rule:evenodd;clip-rule:evenodd;fill:#0085FF;}
	.st12{clip-path:url(#SVGID_20_);}
	.st13{clip-path:url(#SVGID_22_);}
	.st14{clip-path:url(#SVGID_24_);}
	.st15{clip-path:url(#SVGID_26_);}
	.st16{clip-path:url(#SVGID_28_);}
	.st17{clip-path:url(#SVGID_30_);}
	.st18{fill:#FFFFFF;}
	.st19{clip-path:url(#SVGID_32_);fill:#0085FF;}
	.st20{clip-path:url(#SVGID_34_);fill:#0085FF;}
</style>
<g>
	<path class="st0" d="M34.2,68.1l-5.1-4c-1.7,1.2-3.1,2.8-4.3,4.6c-11,18.1,16.1,34.7,27.2,16.6c1.1-1.9,2.1-4.5,2.5-6.6l-6-2.7
		c-0.1,1.3-0.5,3.6-1.9,5.9c-6.5,10.6-22.8,0.7-16.3-9.9C31.6,69.7,33,68.8,34.2,68.1z"/>
	<path class="st0" d="M67.8,66.9c15.4-15.1-7.3-38.2-22.7-23S52.4,82,67.8,66.9z M63.2,62.3c-8.9,8.8-22.5-5-13.6-13.8
		C58.6,39.7,72.2,53.5,63.2,62.3z"/>
	<path class="st0" d="M96.1,33.2L86,15.4l-5.4,3.1l10.1,17.7c3.3,5.7-5.6,10.8-8.8,5L71.8,23.5l-5.4,3.1l10.1,17.8
		C83.8,57.3,103.5,46.1,96.1,33.2z"/>
	<path class="st0" d="M120.8,36.3l6.8-2.1L116.8,24c8-5.3,2.3-20-8.4-16.7L96.6,11l9.2,30l6-1.8l-3.5-11.4l2.9-0.9L120.8,36.3z
		 M106.5,21.8l-2.1-6.7l5.3-1.6c4.1-1.3,6.1,5.4,2.1,6.7L106.5,21.8z"/>
	<path class="st0" d="M126.7,34.3l7.1-0.6l0.9-3.5l10.4-0.9l1.5,3.3l7-0.6L137.8,0.8l-0.7,0.1L126.7,34.3z M136.5,24.2l2.2-8.4
		l3.5,7.9L136.5,24.2z"/>
	<path class="st0" d="M178.4,33.7l2-13.6l-6.3-0.9l-1.3,9.3c-0.6,0-1.2,0-1.8-0.1c-12-1.7-9.9-20.3,2.7-19c3.3,0.4,5.2,1.4,6.3,2.1
		l1.6-6.2c-0.5-0.3-3.4-1.8-7.1-2.2c-21.6-2.3-25,28.5-4.5,31.5C173.1,35,175.9,34.7,178.4,33.7z"/>
	<path class="st0" d="M198,42.5l2.1-5.9l-9.4-3.3l2.1-5.9l7.8,2.8l2.1-5.9l-7.8-2.8l2.1-5.9l8.9,3.2l2.1-5.9l-14.8-5.3l-10.5,29.5
		L198,42.5z"/>
	<path class="st0" d="M213.9,52c18.1,11.7,35.6-15.5,17.5-27.2S195.8,40.3,213.9,52z M217.5,46.5c-10.5-6.8,0-23.1,10.5-16.3
		C238.5,37,228,53.3,217.5,46.5z"/>
	<path class="st0" d="M253.1,72.3l15.1-13.8l-4.2-4.6l-15.1,13.7c-4.9,4.4-11.7-3.1-6.9-7.5l15.1-13.7l-4.2-4.6l-15.1,13.8
		C226.8,65.5,242,82.3,253.1,72.3z"/>
	<path class="st0" d="M248.6,81.4c0.3,4.8,2.1,8.2,3.1,9.7c3.3,4.9,8.5,6,13,3.3c4.3-2.5,4.6-7.6,3.6-12.7c-0.4-1.9-0.5-3.6,0.9-4.6
		c1.4-1,3.4-1,4.6,0.9c0.5,0.8,1.6,2.5,2.1,6.2l5.6-2.4c-0.8-4.2-1.9-6-2.8-7.4c-2.9-4.4-8.2-5.4-12.7-2.8s-4.4,7.7-3.5,12.9
		c0.4,1.8,0.4,3.4-1.1,4.4c-1.4,1-3.3,0.3-4.4-1.2c-0.9-1.2-2.8-4.6-2.4-9L248.6,81.4z"/>
	<g>
		<defs>
			<rect id="SVGID_1_" x="269.1" y="144.7" width="37.5" height="37.5"/>
		</defs>
		<clipPath id="SVGID_2_">
			<use xlink:href="#SVGID_1_"  style="overflow:visible;"/>
		</clipPath>
		<path class="st1" d="M287.8,144.8c0,10.3-8.4,18.7-18.8,18.7c10.4,0,18.8,8.4,18.8,18.7c0-10.3,8.4-18.7,18.8-18.7
			C296.2,163.5,287.8,155.1,287.8,144.8z"/>
	</g>
	<g>
		<defs>
			<rect id="SVGID_3_" x="0.4" y="144.7" width="37.5" height="37.5"/>
		</defs>
		<clipPath id="SVGID_4_">
			<use xlink:href="#SVGID_3_"  style="overflow:visible;"/>
		</clipPath>
		<path class="st2" d="M19.1,144.8c0,10.3-8.4,18.7-18.8,18.7c10.4,0,18.8,8.4,18.8,18.7c0-10.3,8.4-18.7,18.8-18.7
			C27.5,163.5,19.1,155.1,19.1,144.8z"/>
	</g>
	<path class="st3" d="M108.9,164.7c0-17.2,1.7-34.2,6-50.9c2.8-11,6.6-21.5,12.3-31.3c3.3-5.5,7.1-10.6,12.2-14.6
		c4.7-3.6,9.8-5.8,15.8-5.2c4.7,0.4,8.8,2.4,12.4,5.4c5.4,4.3,9.4,9.8,12.8,15.8c5.5,9.6,9.1,20,11.8,30.8
		c2.9,11.8,4.6,23.8,5.4,35.9c0.7,10.8,0.6,21.5-0.2,32.2c-1.3,16.2-4.1,32.1-9.8,47.4c-3,8.3-6.8,16.1-12.1,23.2
		c-2.7,3.6-5.8,6.9-9.6,9.4c-8.3,5.6-17,5.5-25.1-0.3c-5.3-3.7-9.2-8.7-12.6-14.1c-5.4-8.6-9-17.9-11.8-27.6c-2.9-9.9-4.8-20-6-30.3
		C109.4,181.8,108.9,173.3,108.9,164.7z"/>
	<g>
		<defs>
			<rect id="SVGID_5_" x="106.4" y="60" width="94.5" height="210"/>
		</defs>
		<clipPath id="SVGID_6_">
			<use xlink:href="#SVGID_5_"  style="overflow:visible;"/>
		</clipPath>
		<path class="st4" d="M106.4,164.1c0-17.1,1.9-34.5,6.3-51.6c2.8-10.9,6.6-21.4,12.4-31.1c3.5-5.9,7.6-11.4,13.2-15.6
			c4.7-3.6,9.9-5.8,15.9-5.6c5.4,0.2,10.2,2.3,14.5,5.6c5.5,4.2,9.6,9.6,13.2,15.6c5.4,9.2,9.1,19.2,11.9,29.4
			c2.9,10.8,4.7,21.9,5.8,33c1.1,11.5,1.3,23,0.6,34.5c-1.1,17.9-4,35.5-10.2,52.4c-3.2,8.7-7.2,17-12.8,24.3
			c-3,4-6.5,7.5-10.7,10.1c-8.8,5.6-18.4,5.3-27.1-0.9c-5.5-3.9-9.6-9-13.1-14.7c-5.8-9.2-9.6-19.3-12.6-29.8
			c-2.8-10-4.6-20.1-5.7-30.4C106.8,181.2,106.4,172.9,106.4,164.1z M108.9,164.7c0,8.6,0.5,17.1,1.4,25.6c1.2,10.3,3.1,20.4,6,30.3
			c2.8,9.7,6.5,19,11.8,27.6c3.4,5.5,7.3,10.4,12.6,14.1c8.1,5.8,16.8,5.9,25.1,0.3c3.8-2.5,6.8-5.8,9.6-9.4
			c5.4-7,9.1-14.9,12.1-23.2c5.6-15.3,8.5-31.2,9.8-47.4c0.8-10.7,0.9-21.5,0.2-32.2c-0.7-12.1-2.4-24.1-5.4-35.9
			c-2.7-10.7-6.3-21.1-11.8-30.8c-3.4-6-7.4-11.4-12.8-15.7c-3.7-2.9-7.7-4.9-12.4-5.4c-6-0.5-11.2,1.6-15.8,5.2
			c-5.1,4-8.9,9.1-12.2,14.6c-5.8,9.8-9.5,20.3-12.3,31.3C110.6,130.5,108.9,147.5,108.9,164.7z"/>
	</g>
	<g>
		<defs>
			<rect id="SVGID_7_" x="58" y="106" width="190" height="119"/>
		</defs>
		<clipPath id="SVGID_8_">
			<use xlink:href="#SVGID_7_"  style="overflow:visible;"/>
		</clipPath>
		<g class="st5">
			<defs>
				
					<rect id="SVGID_9_" x="106.2" y="59.9" transform="matrix(0.4259 -0.9048 0.9048 0.4259 -61.465 233.773)" width="94.5" height="210.7"/>
			</defs>
			<clipPath id="SVGID_10_">
				<use xlink:href="#SVGID_9_"  style="overflow:visible;"/>
			</clipPath>
			<g class="st6">
				<defs>
					
						<rect id="SVGID_11_" x="106.2" y="59.9" transform="matrix(0.4259 -0.9048 0.9048 0.4259 -61.465 233.773)" width="94.5" height="210.7"/>
				</defs>
				<clipPath id="SVGID_12_">
					<use xlink:href="#SVGID_11_"  style="overflow:visible;"/>
				</clipPath>
				<g class="st7">
					<path class="st3" d="M133.9,205.5c-15.6-7.3-30.2-16.1-43.5-27.1c-8.7-7.2-16.6-15.1-23-24.5c-3.6-5.3-6.6-11-8-17.2
						c-1.3-5.8-1.1-11.3,2-16.5c2.4-4.1,5.9-6.9,10.1-9c6.2-3.1,12.9-4.3,19.7-4.9c11.1-0.9,22,0.3,32.9,2.4
						c11.9,2.4,23.5,6,34.8,10.4c10,4,19.7,8.6,29,13.9c14.1,8.1,27.3,17.4,38.7,29.1c6.2,6.3,11.7,13,15.8,20.9
						c2.1,4,3.7,8.2,4.4,12.7c1.5,9.9-2.3,17.7-11,22.6c-5.6,3.2-11.8,4.6-18.2,5.4c-10,1.2-20,0.5-30-1.1
						c-10.2-1.6-20.2-4.2-30-7.5C149.5,212.3,141.6,209.1,133.9,205.5z"/>
				</g>
			</g>
		</g>
	</g>
	<g>
		<defs>
			<rect id="SVGID_13_" x="56" y="103" width="194" height="124"/>
		</defs>
		<clipPath id="SVGID_14_">
			<use xlink:href="#SVGID_13_"  style="overflow:visible;"/>
		</clipPath>
		<g class="st8">
			<defs>
				
					<rect id="SVGID_15_" x="106.2" y="59.9" transform="matrix(0.4259 -0.9048 0.9048 0.4259 -61.465 233.773)" width="94.5" height="210.7"/>
			</defs>
			<clipPath id="SVGID_16_">
				<use xlink:href="#SVGID_15_"  style="overflow:visible;"/>
			</clipPath>
			<g class="st9">
				<defs>
					
						<rect id="SVGID_17_" x="106.2" y="59.9" transform="matrix(0.4259 -0.9048 0.9048 0.4259 -61.465 233.773)" width="94.5" height="210.7"/>
				</defs>
				<clipPath id="SVGID_18_">
					<use xlink:href="#SVGID_17_"  style="overflow:visible;"/>
				</clipPath>
				<g class="st10">
					<path class="st11" d="M132.2,207.5c-15.4-7.3-30.4-16.4-44-27.7c-8.7-7.2-16.5-15.1-22.9-24.5c-3.9-5.7-7-11.8-8.5-18.5
						c-1.2-5.8-1-11.4,1.7-16.8c2.5-4.8,6.4-8.2,11.2-10.7c6.2-3.2,12.8-4.6,19.7-5.3c10.6-1,21.2-0.1,31.7,1.7
						c11,2,21.8,5,32.3,8.8c10.9,3.9,21.4,8.7,31.5,14.2c15.7,8.6,30.4,18.7,43.1,31.5c6.5,6.6,12.3,13.7,16.5,22
						c2.3,4.4,4,9,4.6,14c1.3,10.4-3.1,18.9-12.4,24.2c-5.9,3.3-12.3,4.8-18.9,5.6c-10.8,1.3-21.6,0.4-32.3-1.3
						c-10.2-1.7-20.2-4.4-30-7.8C147.9,214.4,140.2,211.2,132.2,207.5z M133.9,205.5c7.8,3.7,15.7,6.9,23.8,9.6
						c9.8,3.3,19.7,5.9,30,7.5c9.9,1.5,20,2.2,30,1.1c6.4-0.7,12.5-2.2,18.2-5.4c8.7-4.9,12.5-12.7,11-22.6
						c-0.7-4.5-2.3-8.7-4.4-12.7c-4.1-7.8-9.6-14.6-15.8-20.9c-11.4-11.6-24.6-20.9-38.7-29c-9.3-5.3-19.1-10-29-13.9
						c-11.3-4.5-22.8-8.1-34.8-10.4c-10.9-2.1-21.8-3.3-32.9-2.4c-6.8,0.5-13.5,1.8-19.7,4.9c-4.2,2.1-7.7,4.8-10.1,9
						c-3,5.2-3.3,10.8-2,16.5c1.4,6.3,4.4,12,8,17.2c6.4,9.4,14.3,17.3,23,24.5C103.6,189.4,118.3,198.2,133.9,205.5z"/>
				</g>
			</g>
		</g>
	</g>
	<g>
		<defs>
			<rect id="SVGID_19_" x="58" y="106" width="190" height="119"/>
		</defs>
		<clipPath id="SVGID_20_">
			<use xlink:href="#SVGID_19_"  style="overflow:visible;"/>
		</clipPath>
		<g class="st12">
			<defs>
				
					<rect id="SVGID_21_" x="48" y="118.1" transform="matrix(0.9063 -0.4227 0.4227 0.9063 -55.5281 80.3304)" width="210.8" height="94.5"/>
			</defs>
			<clipPath id="SVGID_22_">
				<use xlink:href="#SVGID_21_"  style="overflow:visible;"/>
			</clipPath>
			<g class="st13">
				<defs>
					
						<rect id="SVGID_23_" x="48" y="118.1" transform="matrix(0.9063 -0.4227 0.4227 0.9063 -55.5281 80.3304)" width="210.8" height="94.5"/>
				</defs>
				<clipPath id="SVGID_24_">
					<use xlink:href="#SVGID_23_"  style="overflow:visible;"/>
				</clipPath>
				<g class="st14">
					<path class="st3" d="M171.7,206.2c-15.6,7.3-31.7,12.9-48.7,16.1c-11.1,2.1-22.3,3.1-33.6,2c-6.4-0.6-12.6-2-18.4-4.9
						c-5.3-2.7-9.4-6.4-11.4-12.1c-1.6-4.5-1.5-9-0.4-13.5c1.6-6.7,4.9-12.7,8.9-18.3c6.4-9.1,14.3-16.7,22.9-23.7
						c9.4-7.6,19.6-14.2,30.3-20c9.5-5.1,19.2-9.6,29.3-13.4c15.3-5.7,30.9-9.8,47.1-11.1c8.8-0.7,17.5-0.7,26.2,1.2
						c4.4,1,8.7,2.4,12.5,4.7c8.5,5.2,12.1,13.1,10.3,22.9c-1.2,6.3-4,12-7.5,17.4c-5.5,8.5-12.4,15.7-20,22.3
						c-7.8,6.8-16.1,12.8-24.9,18.2C187,198.5,179.4,202.6,171.7,206.2z"/>
				</g>
			</g>
		</g>
	</g>
	<g>
		<defs>
			<rect id="SVGID_25_" x="56" y="104" width="194" height="124"/>
		</defs>
		<clipPath id="SVGID_26_">
			<use xlink:href="#SVGID_25_"  style="overflow:visible;"/>
		</clipPath>
		<g class="st15">
			<defs>
				
					<rect id="SVGID_27_" x="48" y="118.1" transform="matrix(0.9063 -0.4227 0.4227 0.9063 -55.5281 80.3304)" width="210.8" height="94.5"/>
			</defs>
			<clipPath id="SVGID_28_">
				<use xlink:href="#SVGID_27_"  style="overflow:visible;"/>
			</clipPath>
			<g class="st16">
				<defs>
					
						<rect id="SVGID_29_" x="48" y="118.1" transform="matrix(0.9063 -0.4227 0.4227 0.9063 -55.5281 80.3304)" width="210.8" height="94.5"/>
				</defs>
				<clipPath id="SVGID_30_">
					<use xlink:href="#SVGID_29_"  style="overflow:visible;"/>
				</clipPath>
				<g class="st17">
					<path class="st11" d="M172.2,208.7c-15.5,7.2-32.1,12.9-49.4,16.1c-11.1,2-22.2,3.1-33.5,1.9c-6.8-0.7-13.5-2.1-19.7-5.4
						c-5.2-2.7-9.4-6.5-11.8-12.1c-2.1-5-2.2-10.2-1.1-15.5c1.5-6.8,4.7-12.8,8.5-18.5c6-8.8,13.5-16.4,21.6-23.2
						c8.6-7.2,17.8-13.5,27.5-19.2c10-5.8,20.3-10.9,31.1-15.1c16.7-6.6,33.8-11.4,51.8-12.9c9.2-0.8,18.4-0.7,27.5,1.4
						c4.9,1.1,9.5,2.7,13.7,5.4c8.8,5.7,12.6,14.5,10.6,25c-1.2,6.6-4.1,12.5-7.8,18.1c-5.9,9.1-13.5,16.9-21.7,24
						c-7.9,6.7-16.3,12.7-25.2,18.1C187.5,201.1,180.2,204.9,172.2,208.7z M171.7,206.2c7.8-3.6,15.3-7.7,22.6-12.1
						c8.8-5.4,17.2-11.4,24.9-18.2c7.5-6.7,14.5-13.9,20-22.3c3.5-5.3,6.3-11,7.5-17.4c1.8-9.8-1.8-17.8-10.3-22.9
						c-3.9-2.4-8.1-3.8-12.5-4.7c-8.6-1.9-17.4-2-26.2-1.2c-16.2,1.4-31.8,5.5-47.1,11.2c-10.1,3.8-19.9,8.3-29.3,13.4
						c-10.7,5.8-20.8,12.4-30.3,20c-8.6,7-16.5,14.7-22.9,23.7c-4,5.6-7.2,11.5-8.8,18.2c-1.1,4.6-1.2,9.1,0.4,13.5
						c2.1,5.7,6.2,9.4,11.4,12.1c5.8,2.9,12,4.3,18.4,4.9c11.3,1.1,22.5,0.1,33.6-2C140,219.1,156.1,213.4,171.7,206.2z"/>
				</g>
			</g>
		</g>
	</g>
	<path class="st18" d="M174.8,155.8c0,1.1-0.9,2.1-2.1,2.1h-58.4c-1.1,0-2.1-0.9-2.1-2.1v-14c0-1.1,0.9-2.1,2.1-2.1h58.4
		c1.1,0,2.1,0.9,2.1,2.1V155.8"/>
	<g>
		<defs>
			<rect id="SVGID_31_" x="111.5" y="138.9" width="64.5" height="20.1"/>
		</defs>
		<clipPath id="SVGID_32_">
			<use xlink:href="#SVGID_31_"  style="overflow:visible;"/>
		</clipPath>
		<path class="st19" d="M174.8,155.8H174c0,0.3-0.1,0.7-0.4,0.9c-0.2,0.2-0.5,0.4-0.9,0.4h-58.4c-0.3,0-0.7-0.1-0.9-0.4
			c-0.2-0.2-0.4-0.5-0.4-0.9v-14c0-0.3,0.1-0.7,0.4-0.9s0.5-0.4,0.9-0.4h58.4c0.3,0,0.7,0.1,0.9,0.4c0.2,0.2,0.4,0.5,0.4,0.9v14h1.6
			v-14c0-0.8-0.3-1.5-0.8-2.1c-0.5-0.5-1.2-0.8-2-0.8h-58.4c-0.8,0-1.5,0.3-2,0.8c-0.5,0.5-0.8,1.3-0.8,2.1v14
			c0,0.8,0.3,1.5,0.8,2.1c0.5,0.5,1.3,0.9,2,0.9h58.4c0.8,0,1.5-0.3,2-0.9c0.5-0.5,0.8-1.3,0.8-2.1H174.8"/>
	</g>
	<path class="st0" d="M120.9,143.8v10.5c0,0.5,0.4,0.8,0.8,0.8c0.5,0,0.8-0.4,0.8-0.8v-10.5c0-0.5-0.4-0.8-0.8-0.8
		C121.3,142.9,120.9,143.3,120.9,143.8"/>
	<path class="st0" d="M116.5,149.9H127c0.5,0,0.8-0.4,0.8-0.8c0-0.5-0.4-0.8-0.8-0.8h-10.5c-0.5,0-0.8,0.4-0.8,0.8
		C115.7,149.5,116.1,149.9,116.5,149.9"/>
	<path class="st18" d="M118,145.3l7.4,7.4"/>
	<path class="st0" d="M117.5,145.9l7.4,7.5c0.3,0.3,0.8,0.3,1.2,0s0.3-0.8,0-1.2l-7.4-7.4c-0.3-0.3-0.8-0.3-1.2,0
		C117.1,145,117.1,145.6,117.5,145.9"/>
	<path class="st18" d="M118,152.8l7.4-7.4"/>
	<path class="st0" d="M118.6,153.3l7.4-7.5c0.3-0.3,0.3-0.8,0-1.2c-0.3-0.3-0.8-0.3-1.2,0l-7.4,7.4c-0.3,0.3-0.3,0.8,0,1.2
		C117.8,153.7,118.3,153.7,118.6,153.3"/>
	<path class="st0" d="M135.2,143.6v10.5c0,0.5,0.4,0.8,0.8,0.8c0.5,0,0.8-0.4,0.8-0.8v-10.5c0-0.5-0.4-0.8-0.8-0.8
		C135.6,142.8,135.2,143.1,135.2,143.6"/>
	<path class="st0" d="M130.8,149.7h10.5c0.5,0,0.8-0.4,0.8-0.8c0-0.5-0.4-0.8-0.8-0.8h-10.5c-0.5,0-0.8,0.4-0.8,0.8
		C130,149.3,130.3,149.7,130.8,149.7"/>
	<path class="st18" d="M132.3,145.1l7.4,7.4"/>
	<path class="st0" d="M131.8,145.7l7.4,7.5c0.3,0.3,0.8,0.3,1.2,0c0.3-0.3,0.3-0.8,0-1.2l-7.4-7.4c-0.3-0.3-0.8-0.3-1.2,0
		C131.4,144.9,131.4,145.4,131.8,145.7"/>
	<path class="st18" d="M132.3,152.6l7.4-7.4"/>
	<path class="st0" d="M132.9,153.2l7.4-7.5c0.3-0.3,0.3-0.8,0-1.2c-0.3-0.3-0.8-0.3-1.2,0l-7.4,7.4c-0.3,0.3-0.3,0.8,0,1.2
		C132.1,153.5,132.6,153.5,132.9,153.2"/>
	<path class="st0" d="M149.5,143.4v10.5c0,0.5,0.4,0.8,0.8,0.8c0.5,0,0.8-0.4,0.8-0.8v-10.5c0-0.5-0.4-0.8-0.8-0.8
		C149.9,142.6,149.5,143,149.5,143.4"/>
	<path class="st0" d="M145.1,149.5h10.5c0.5,0,0.8-0.4,0.8-0.8s-0.4-0.8-0.8-0.8h-10.5c-0.5,0-0.8,0.4-0.8,0.8
		S144.6,149.5,145.1,149.5"/>
	<path class="st18" d="M146.6,145l7.4,7.4"/>
	<path class="st0" d="M146,145.5l7.4,7.5c0.3,0.3,0.8,0.3,1.2,0c0.3-0.3,0.3-0.9,0-1.2l-7.4-7.4c-0.3-0.3-0.8-0.3-1.2,0
		C145.7,144.7,145.7,145.2,146,145.5"/>
	<path class="st18" d="M146.6,152.4l7.4-7.4"/>
	<path class="st0" d="M147.2,153l7.4-7.5c0.3-0.3,0.3-0.8,0-1.2c-0.3-0.3-0.8-0.3-1.2,0l-7.4,7.4c-0.3,0.3-0.3,0.8,0,1.2
		C146.4,153.3,146.9,153.3,147.2,153"/>
	<path class="st0" d="M163.8,143.2v10.5c0,0.5,0.4,0.8,0.8,0.8c0.5,0,0.8-0.4,0.8-0.8v-10.5c0-0.5-0.4-0.8-0.8-0.8
		C164.2,142.4,163.8,142.8,163.8,143.2"/>
	<path class="st0" d="M159.4,149.3h10.5c0.5,0,0.8-0.4,0.8-0.8s-0.4-0.8-0.8-0.8h-10.5c-0.5,0-0.8,0.4-0.8,0.8
		S158.9,149.3,159.4,149.3"/>
	<path class="st18" d="M160.9,144.8l7.4,7.4"/>
	<path class="st0" d="M160.3,145.4l7.4,7.5c0.3,0.3,0.8,0.3,1.2,0c0.3-0.3,0.3-0.8,0-1.2l-7.4-7.4c-0.3-0.3-0.8-0.3-1.2,0
		S160,145,160.3,145.4"/>
	<path class="st18" d="M160.9,152.2l7.4-7.5"/>
	<path class="st0" d="M161.5,152.8l7.4-7.5c0.3-0.3,0.3-0.8,0-1.2c-0.3-0.3-0.8-0.3-1.2,0l-7.4,7.4c-0.3,0.3-0.3,0.8,0,1.2
		C160.7,153.1,161.2,153.1,161.5,152.8"/>
	<path class="st18" d="M179.6,166.2c0,1.5-1.2,2.7-2.7,2.7h-7.5c-1.5,0-2.7-1.2-2.7-2.7v-13.5c0-1.5,1.2-2.7,2.7-2.7h7.5
		c1.5,0,2.7,1.2,2.7,2.7V166.2z M179.2,145.8h-12c-2.4,0-4.3,1.9-4.3,4.3v21.7c0,2.4,1.9,4.3,4.3,4.3h12c2.4,0,4.3-1.9,4.3-4.3
		v-21.7C183.5,147.8,181.6,145.8,179.2,145.8"/>
	<path class="st0" d="M179.6,166.2h-0.8c0,0.5-0.2,1-0.5,1.3c-0.3,0.3-0.8,0.5-1.3,0.5h-7.5c-0.5,0-1-0.2-1.3-0.5
		c-0.3-0.3-0.5-0.8-0.5-1.3v-13.5c0-0.5,0.2-1,0.5-1.3c0.3-0.3,0.8-0.5,1.3-0.5h7.5c0.5,0,1,0.2,1.3,0.5c0.3,0.3,0.5,0.8,0.5,1.3
		v13.5h1.6v-13.5c0-1-0.4-1.8-1-2.5s-1.5-1-2.5-1h-7.5c-1,0-1.8,0.4-2.5,1c-0.6,0.6-1,1.5-1,2.5v13.5c0,1,0.4,1.9,1,2.5
		c0.6,0.6,1.5,1,2.5,1h7.5c1,0,1.8-0.4,2.5-1s1-1.5,1-2.5H179.6z M179.2,145.8V145h-12c-1.4,0-2.7,0.6-3.6,1.5
		c-0.9,0.9-1.5,2.2-1.5,3.6v21.7c0,2.8,2.3,5.1,5.1,5.1h12c2.8,0,5.1-2.3,5.1-5.1v-21.7c0-2.8-2.3-5.1-5.1-5.1v1.7
		c1,0,1.8,0.4,2.5,1c0.6,0.6,1,1.5,1,2.5v21.7c0,1-0.4,1.8-1,2.5c-0.6,0.6-1.5,1-2.5,1h-12c-1,0-1.8-0.4-2.5-1s-1-1.5-1-2.5v-21.7
		c0-1,0.4-1.8,1-2.5c0.6-0.6,1.5-1,2.5-1h12V145.8"/>
	<path class="st18" d="M161.8,191.2c-1.8,0-3.2-1.4-3.2-3.2v-24.3c0-1.8,1.4-3.2,3.2-3.2h22.9c1.8,0,3.2,1.4,3.2,3.2V188
		c0,1.8-1.4,3.2-3.2,3.2H161.8"/>
	<g>
		<defs>
			<rect id="SVGID_33_" x="157" y="159" width="31.7" height="33.1"/>
		</defs>
		<clipPath id="SVGID_34_">
			<use xlink:href="#SVGID_33_"  style="overflow:visible;"/>
		</clipPath>
		<path class="st20" d="M184.7,159.7h-22.9c-2.2,0-4,1.8-4,4V188c0,2.2,1.8,4,4,4h22.9c2.2,0,4-1.8,4-4v-24.3
			C188.7,161.5,186.9,159.7,184.7,159.7z M184.7,161.4c1.3,0,2.4,1.1,2.4,2.4V188c0,1.3-1.1,2.4-2.4,2.4h-22.9
			c-1.3,0-2.4-1.1-2.4-2.4v-24.3c0-1.3,1.1-2.4,2.4-2.4H184.7"/>
	</g>
	<path class="st0" d="M175.5,175.7c0.5-0.5,0.7-1.2,0.7-2c0-1.7-1.3-3-3-3s-3,1.3-3,3c0,0.8,0.3,1.5,0.7,2l-1.6,5.3h7.6L175.5,175.7
		"/>
	<g>
		<defs>
			<rect id="SVGID_35_" x="97.3" y="164" width="41.3" height="40.8"/>
		</defs>
		<clipPath id="SVGID_36_">
			<use xlink:href="#SVGID_35_"  style="overflow:visible;"/>
		</clipPath>
		<g transform="matrix(1 0 0 1 -7.629395e-06 0)" style="clip-path:url(#SVGID_36_);enable-background:new    ;">
			
				<image style="overflow:visible;" width="450" height="450" id="image25" xlink:href="5BA8C950.jpg"  transform="matrix(9.166670e-02 0 0 9.166670e-02 97.341 163.5157)">
			</image>
		</g>
	</g>
	<path class="st0" d="M106.8,287.7l1.2-2.2c-0.6-0.6-1.2-1-2-1.3c-7.5-3-12,8.3-4.5,11.3c0.8,0.3,1.8,0.5,2.6,0.5l0.6-2.4
		c-0.5,0.1-1.4,0-2.3-0.4c-4.4-1.8-1.7-8.5,2.7-6.8C106,286.8,106.4,287.3,106.8,287.7z"/>
	<path class="st0" d="M111.5,299c7.9,2.4,11.4-9.5,3.6-11.8C107.1,284.8,103.6,296.7,111.5,299z M112.2,296.7
		c-4.6-1.4-2.5-8.5,2.1-7.1C118.9,291,116.8,298,112.2,296.7z"/>
	<path class="st0" d="M125.9,290.2l-3.5-0.7l-2.4,11.7l3.5,0.7C131.3,303.5,133.7,291.8,125.9,290.2z M125.4,292.5
		c4.6,0.9,3.1,8-1.4,7l-1.2-0.2l1.4-7.1L125.4,292.5z"/>
	<path class="st0" d="M138,304.2l0.3-2.4l-3.8-0.5l0.3-2.4l3.1,0.4l0.3-2.4l-3.1-0.4l0.3-2.4l3.6,0.5l0.3-2.4l-5.9-0.8l-1.5,11.9
		L138,304.2z"/>
	<path class="st0" d="M144.9,297.9l-0.1,2.2l6.1,0.2l0.1-2.2L144.9,297.9z"/>
	<path class="st0" d="M163.1,297.7l-5.1-4.9l-0.8,0.1l0.9,12.1l2.4-0.2l-0.5-6.7l3.3,3l2.8-3.4l0.5,6.7l2.4-0.2l-0.9-12.1l-0.8,0.1
		L163.1,297.7z"/>
	<path class="st0" d="M174.4,303.4l-1.7-11.9l-2.4,0.3l1.7,11.9L174.4,303.4z"/>
	<path class="st0" d="M178.4,296.2l7.3,5.4l0.6-0.1l-2.4-12l-2.4,0.5l1.3,6.6l-7.3-5.7l-0.6,0.1l2.4,12l2.3-0.5L178.4,296.2z"/>
	<path class="st0" d="M193.3,299.3l-2.6-9.2l2.9-0.8L193,287l-8.1,2.3l0.6,2.3l2.9-0.8l2.6,9.2L193.3,299.3z"/>
	<path class="st0" d="M200.4,297.1l-3.8-11.4l-2.3,0.8l3.8,11.4L200.4,297.1z"/>
	<path class="st0" d="M206.8,284.8l-0.6-2.4c-0.8,0-1.6,0.1-2.4,0.4c-7.5,3-3.1,14.3,4.5,11.3c0.8-0.3,1.7-0.9,2.3-1.4l-1.2-2.2
		c-0.3,0.4-1,1-2,1.4c-4.4,1.7-7.1-5-2.7-6.8C205.7,284.7,206.3,284.7,206.8,284.8z"/>
	<path class="st0" d="M163,100.3h-17.7V70.5H163V77h-9.7v4.7h8.9v6.5h-8.9v5.6h9.7V100.3z"/>
	<path class="st0" d="M84.4,146.6l-1.5-5.6h-9.7l-1.5,5.6h-8.8l9.7-29.9h10.8l9.8,29.9H84.4z M81.3,134.4l-1.3-4.9
		c-0.3-1.1-0.7-2.5-1.1-4.2c-0.4-1.7-0.7-3-0.8-3.7c-0.1,0.7-0.4,1.8-0.7,3.4c-0.4,1.6-1.2,4.7-2.4,9.4H81.3z"/>
	<path class="st0" d="M159.9,252.3l-1.5-5.6h-9.7l-1.5,5.6h-8.8l9.7-29.9h10.8l9.8,29.9H159.9z M156.7,240.1l-1.3-4.9
		c-0.3-1.1-0.7-2.5-1.1-4.2c-0.4-1.7-0.7-3-0.8-3.7c-0.1,0.7-0.4,1.8-0.7,3.4c-0.4,1.6-1.2,4.7-2.4,9.4H156.7z"/>
	<path class="st0" d="M226.7,137.6c0,1.8-0.5,3.5-1.4,4.9c-0.9,1.4-2.3,2.5-4.1,3.3c-1.8,0.8-3.8,1.2-6.2,1.2c-2,0-3.7-0.1-5-0.4
		c-1.3-0.3-2.7-0.8-4.2-1.5V138c1.5,0.8,3.1,1.4,4.8,1.8c1.7,0.4,3.2,0.7,4.6,0.7c1.2,0,2.1-0.2,2.6-0.6c0.6-0.4,0.8-1,0.8-1.6
		c0-0.4-0.1-0.8-0.3-1.1c-0.2-0.3-0.6-0.6-1.1-0.9c-0.5-0.3-1.8-0.9-4-1.9c-1.9-0.9-3.4-1.7-4.4-2.6c-1-0.8-1.7-1.8-2.2-2.9
		c-0.5-1.1-0.7-2.4-0.7-3.8c0-2.8,1-4.9,3-6.4c2-1.5,4.7-2.3,8.2-2.3c3.1,0,6.2,0.7,9.4,2.1l-2.5,6.2c-2.8-1.3-5.2-1.9-7.2-1.9
		c-1.1,0-1.8,0.2-2.3,0.6c-0.5,0.4-0.7,0.8-0.7,1.4c0,0.6,0.3,1.1,0.9,1.6c0.6,0.5,2.2,1.3,4.9,2.5c2.6,1.2,4.4,2.4,5.3,3.7
		C226.2,133.9,226.7,135.6,226.7,137.6z"/>
	<path class="st0" d="M232.2,212.8l-1.5-5.6h-9.7l-1.5,5.6h-8.8l9.7-29.9h10.8l9.8,29.9H232.2z M229.1,200.6l-1.3-4.9
		c-0.3-1.1-0.7-2.5-1.1-4.2c-0.4-1.7-0.7-3-0.8-3.7c-0.1,0.7-0.4,1.8-0.7,3.4c-0.4,1.6-1.2,4.7-2.4,9.4H229.1z"/>
</g>
</svg>
