<?xml version="1.0" encoding="utf-8"?>
<!-- Generator: Adobe Illustrator 16.0.3, SVG Export Plug-In . SVG Version: 6.00 Build 0)  -->
<!DOCTYPE svg PUBLIC "-//W3C//DTD SVG 1.1//EN" "http://www.w3.org/Graphics/SVG/1.1/DTD/svg11.dtd">
<svg version="1.1" id="Capa_1" xmlns="http://www.w3.org/2000/svg" xmlns:xlink="http://www.w3.org/1999/xlink" x="0px" y="0px"
	 width="960px" height="560px" viewBox="0 0 960 560" enable-background="new 0 0 960 560" xml:space="preserve">
<g>
	<path fill-rule="evenodd" clip-rule="evenodd" fill="#0C86F3" d="M589.549,290.346c-2.111-2.474-2.24-4.102-0.031-6.552
		c5.91-6.558,10.684-13.919,14.486-21.902c11.973-25.131,1.939-46.162-24.953-53.107c-12.11-3.128-24.27-3.529-36.613-2.929
		c-10.23,0.498-9.888,0.252-13.519-9.479c-5.968-15.998-13.68-31.005-27.384-42.016c-9.521-7.65-19.98-9.982-31.606-5.391
		c0.862,1.222,2.104,1.948,3.404,2.592c17.261-2.198,28.679,6.563,37.813,19.914c5.203,7.606,9.302,15.729,12.595,24.296
		c4.807,12.505,3.625,9.938-6.869,12.131c-2.226,0.465-5.161-0.025-6.022,3.176c1.324,1.195,3.066,1.662,4.541,2.586
		c1.155,0.354,2.309,0.225,3.454-0.039c14.231-3.271,28.694-3.807,43.188-3.202c8.515,0.355,16.88,2.025,24.644,5.787
		c8.99,4.354,15.681,10.737,17.272,21.118c1.603,10.457-2.03,19.841-7.2,28.46c-14.131,23.562-34.898,40.425-57.531,55.159
		c-24.596,16.011-51.207,27.748-79.394,35.792c-18.153,5.181-36.783,7.531-55.661,7.947c-3.143,0.069-6.228-1.457-9.385-0.254
		c-1.995,1.903-5.303,0.389-7.121,2.749c0.612,0.236,1.207,0.606,1.839,0.689c11.601,1.526,23.236,1.934,34.842,0.293
		c3.934-0.557,6.143-0.236,7.608,4.291c4.164,12.862,10.374,24.754,18.798,35.451c17.6,22.349,40.978,22.902,59.306,1.162
		c9.656-11.453,15.903-24.817,20.699-38.872c0.811-2.375,1.525-3.166,4.101-2.763c15.483,2.429,30.86,1.694,45.971-2.492
		c21.315-5.905,32.545-22.962,26.459-43.255C603.719,309.817,597.469,299.622,589.549,290.346z"/>
	<path fill-rule="evenodd" clip-rule="evenodd" fill="#0B85F5" d="M510.771,210.852c-2.002-1.64-4.117-0.796-6.18-0.222
		c-6.582,1.833-13.184,3.61-19.685,5.706c-2.675,0.862-5.087,0.917-7.764,0.005c-12.63-4.307-25.47-7.893-38.589-10.37
		c-2.815-0.532-3.786-1.473-2.713-4.293c7.376-19.382,15.943-37.888,35.104-48.786c0.869-0.494,1.706-1.061,2.054-2.087
		c-0.204-1.982-1.723-1.766-3.07-1.835c-3.837,0.487-6.596,2.963-9.418,5.235c-15.251,12.28-23.025,29.289-29.38,47.102
		c-1.121,3.143-2.102,4.365-5.819,3.99c-16.474-1.661-32.91-1.615-48.871,3.715c-21.393,7.145-29.053,24.652-23.753,42.174
		c3.668,12.125,10.226,22.285,18.141,31.709c2.769,3.296,2.114,5.088-0.281,7.829c-5.028,5.755-9.49,11.985-12.893,18.836
		c-4.866,9.797-8.754,19.989-5.636,31.146c4.116,14.726,18.171,24.947,35.636,26.476c2.339-1.063,5.665,1.554,7.344-1.969
		c-1.071-1.664-2.91-1.385-4.479-1.726c-7.668-1.667-15.164-3.742-22.038-7.736c-7.141-4.149-11.208-10.262-12.247-18.377
		c-1.331-10.387,1.815-19.709,7.06-28.483c10.957-18.33,26.236-32.643,43.149-45.188c30.991-22.989,65.646-38.389,102.863-48.224
		c2.037-0.538,4.348-0.623,5.691-2.686C514.479,210.21,512.271,211.3,510.771,210.852z"/>
	<path fill-rule="evenodd" clip-rule="evenodd" fill="#FEFEFE" d="M395,365.213c-8.005-0.728-15.609-2.868-22.97-6.112
		c-14.292-6.3-20.61-20.106-16.436-35.287c3.58-13.022,10.922-23.766,19.75-33.541c29.175-32.303,65.951-52.706,106.317-67.476
		c10.932-3.999,22.043-7.277,33.339-10.004c13.754-2.535,27.572-4.295,41.612-3.92c9.194,0.245,18.272,1.284,26.915,4.447
		c20.352,7.447,27.33,24.593,18.506,45.043c-7.771,18.009-20.924,31.846-35.619,44.145c-33.896,28.371-72.719,47.372-115.543,57.843
		C432.63,364.811,413.934,367.186,395,365.213z"/>
	<path fill-rule="evenodd" clip-rule="evenodd" fill="#FDFEFE" d="M510.771,210.852c-9.129,1.12-17.676,4.406-26.379,7.102
		c-1.735,0.538-3.27,1.219-5.257,0.52c-14.277-5.023-28.763-9.313-43.78-11.524c-2.036-0.301-2.543-1.049-1.849-2.96
		c6.339-17.453,13.747-34.232,28.352-46.683c3.351-2.856,7.239-4.659,11.142-6.501c17.007-3.676,28.249,5.239,37.6,17.631
		c8.159,10.813,13.396,23.157,17.687,35.954c0.875,2.609-0.244,2.685-2.029,3.093C521.105,208.659,515.702,208.678,510.771,210.852z
		"/>
	<path fill-rule="evenodd" clip-rule="evenodd" fill="#FDFEFD" d="M603.484,320.104c-3.258-10.149-9.304-18.615-15.644-26.977
		c-2.251-2.968-3.565-3.159-6.298-0.348c-16.912,17.4-36.645,31.091-57.807,42.748c-11.695,6.442-23.966,11.742-36.463,16.938
		c1.612,1.598,3.445,1.947,5.164,2.467c12.889,3.9,25.93,7.219,39.32,8.793c16.936,1.992,33.807,2.535,50.411-2.746
		C601.58,354.806,609.682,339.418,603.484,320.104z"/>
	<path fill-rule="evenodd" clip-rule="evenodd" fill="#FDFEFD" d="M480.401,421.859c-8.651-0.319-15.734-4.475-21.837-10.387
		c-12.002-11.626-18.705-26.377-24.187-41.817c-0.713-2.007-0.122-2.55,1.816-2.905c14.725-2.699,29.214-6.306,43.267-11.547
		c1.422-0.53,2.953-0.285,4.411,0.236c13.166,4.707,26.633,8.304,40.428,10.581c3.252,0.537,4.07,1.574,2.839,4.869
		c-5.976,15.988-13.019,31.261-26.196,42.836C495.09,418.866,488.303,421.535,480.401,421.859z"/>
	<path fill-rule="evenodd" clip-rule="evenodd" fill="#FEFEFE" d="M473.344,220.025c-24.254-8.322-49.072-13.276-74.842-11.938
		c-9.673,0.502-19.044,2.485-27.853,6.915c-19.836,9.977-19.124,32.689-9.756,45.946c1.809-1.453,2.263-3.623,2.914-5.658
		c2.827-8.846,5.853-17.628,8.612-26.492c1.216-3.904,3.226-5.607,7.491-5.579c4.362,0.029,7.352,0.962,8.505,5.632
		c0.872,3.531,2.108,6.989,3.323,10.423c2.694,7.611,4.328,15.611,8.241,22.781c1.557-0.93,3.192-1.75,4.657-2.806
		c17.015-12.258,35.058-22.726,54.255-31.178c5.229-2.303,10.505-4.499,16.245-6.951
		C474.115,220.488,473.76,220.168,473.344,220.025z"/>
	<g>
		<path fill="#0385FB" d="M399.978,262.055c0,0,0.06-0.09,0.06-0.09c-0.015,0.006-0.029,0.011-0.043,0.018
			C399.987,262.007,399.985,262.03,399.978,262.055z"/>
		<path fill="#0385FB" d="M399.508,258.694c-2.888-8.795-5.79-17.586-8.577-26.413c-3.485-11.039-3.438-11.025-14.992-10.248
			c-1.61,0.108-2.758,0.267-3.338,2.122c-3.843,12.283-7.793,24.533-11.708,36.793c4.475,0.013,9.311,1.13,12.118-3.96
			c2.799-0.104,5.554-0.739,8.382-0.578c2.054,0.117,3.763,0.476,5.123,2.348c3.845,5.294,6.945,5.958,13.477,3.225
			C400.312,260.818,399.866,259.783,399.508,258.694z"/>
	</g>
	<path fill-rule="evenodd" clip-rule="evenodd" fill="#FBFDFC" d="M373.012,256.988c2.096-4.078,5.862-1.652,8.845-2.251
		c3.72-0.746,5.93,0.643,6.417,4.587c0.266,2.156,1.632,2.926,3.848,2.745c2.624-0.215,5.276-0.085,7.916-0.104
		c-7.303,7.18-15.597,13.284-22.584,20.809c-1.338,1.44-2.186,0.447-3.154-0.689c-5.054-5.934-9.657-12.16-13.68-20.062
		c2.772,0,4.988-0.208,7.149,0.046C371.747,262.534,373.323,260.807,373.012,256.988z"/>
	<path fill-rule="evenodd" clip-rule="evenodd" fill="#0484FA" d="M567.928,221.811c0.813,0.151,2.947,0.469,5.043,0.954
		c5.23,1.211,6.225,4.504,2.822,8.68c-1.041,1.277-1.938,0.882-3.019,0.404c-2.322-1.025-4.81-1.383-7.292-1.439
		c-1.427-0.032-3.148,0.168-3.506,2.105c-0.294,1.598,0.796,2.435,2.039,3.064c2.516,1.274,5.07,2.477,7.569,3.782
		c4.673,2.439,7.543,6.184,6.962,11.596c-0.586,5.465-3.846,8.973-9.168,10.615c-5.48,1.69-10.842,1.313-16.16-0.562
		c-1.97-0.694-3.563-8.284-2.007-9.577c0.95-0.789,1.873,0.034,2.73,0.418c2.941,1.313,6.073,1.765,9.229,1.86
		c1.794,0.055,3.896-0.115,4.34-2.44c0.393-2.058-1.436-2.91-2.808-3.707c-1.835-1.066-3.943-1.659-5.794-2.703
		c-6.722-3.789-9.211-8.621-7.659-14.567c1.309-5.016,6.198-8.13,13.333-8.479C565.248,221.782,565.916,221.811,567.928,221.811z"/>
	<path fill-rule="evenodd" clip-rule="evenodd" fill="#1287F1" d="M487.975,320.438c-1.095-1-1.119-2.33-1.119-3.66
		c-0.002-10.566,0.213-21.141-0.104-31.697c-0.124-4.111,3.326-4.802,5.12-7.071c-0.198-0.81-0.618-1.568-0.577-2.44
		c0-0.441,0.037-0.876,0.086-1.312c0.383-2.49-1.169-4.844-2.244-6.305c-2.653-3.607,0.947-6.13,0.577-9.162
		c-0.075-0.619,0.798-1.212,1.45-0.895c2.439,1.183,2.924-1.188,4.181-2.165c2.296,0.436,2.664,2.205,2.859,4.1
		c0.03,0.775-0.062,1.54-0.25,2.288c-1.729,5.069-3.158,10.144-0.171,15.259c0.934,0.015,1.862-0.072,2.79,0.034
		c2.484,0.403,4.989,0.278,7.484,0.253c5.331-0.053,6.452-1.509,5.284-6.725c-0.258-1.149-0.841-2.172-1.287-3.253
		c-0.33-0.982-0.714-1.968,0.053-2.927c4.379,0.523,5.646,2.089,6.223,6.945c0.244,2.059-1.078,4.722,1.84,5.994
		c0.7,0.285,1.305,0.728,1.918,1.153c2.32,0.546,4.623,1.115,5.109,4.001c-0.679,0.771-1.563,0.896-2.516,0.805
		c-9.869-2.184-19.86-0.886-29.801-0.979c-3.549-0.033-4.27,2.577-4.313,5.488c-0.117,7.813-0.008,15.626-0.06,23.438
		c-0.016,2.319,0.154,4.663-0.627,6.922C489.509,319.428,488.896,320.089,487.975,320.438z"/>
	<path fill-rule="evenodd" clip-rule="evenodd" fill="#3D82C2" d="M487.975,320.438c0.43-0.517,0.861-1.033,1.292-1.55
		c8.413-0.914,16.851-0.258,25.276-0.378c9.635-0.137,9.92-0.326,9.936-10.185c0.011-6.625-0.002-13.251,0.004-19.877
		c0.002-1.8-0.27-3.666,0.834-5.302c0.627-0.097,1.255-0.193,1.882-0.291c1.886,3.618,0.698,7.49,0.81,11.23
		c0.215,7.153,0.072,14.317,0.057,21.477c-0.01,4.42-1.92,6.722-6.674,6.642c-9.488-0.158-18.98-0.046-28.471-0.023
		C491.048,322.185,489.241,322.103,487.975,320.438z"/>
	<path fill-rule="evenodd" clip-rule="evenodd" fill="#2E7ABD" d="M491.834,275.918c0.177,0.694,1.273,1.371,0.039,2.092
		c-20.359,0.024-40.717,0.051-61.076,0.07c-1.822,0.001-3.696,0.092-4.813-1.808c-0.543-1.394,0.479-1.632,1.422-1.932
		c19.089,0.569,38.184,0.073,57.275,0.274C487.113,274.641,489.715,274.044,491.834,275.918z"/>
	<path fill-rule="evenodd" clip-rule="evenodd" fill="#2F7BBE" d="M425.388,253.962c0.95-2.469,3.1-2.109,5.062-2.111
		c24.805-0.017,49.61-0.033,74.415-0.009c2.24,0.002,4.921-0.491,5.252,2.989c-0.499,1.552,0.678,3.955-2.187,4.309
		c-1.328-1.214-1.19-3.476-3.093-4.278c-0.486-0.167-0.953-0.371-1.455-0.372c-24.563-0.042-49.127-0.321-73.684,0.151
		c-0.824,0.283-1.621,0.669-2.503,0.758C426.22,255.395,425.576,254.964,425.388,253.962z"/>
	<path fill-rule="evenodd" clip-rule="evenodd" fill="#337FC3" d="M522.088,278.853c-0.726,0.013-1.452,0.026-2.178,0.039
		c-2.065-2.604-1.229-5.687-1.361-8.589c-0.246-5.341-1.506-6.499-6.823-6.872c-4.845-0.341-9.882,1.29-14.521-1.306
		c-0.002-0.753-0.004-1.505-0.006-2.258c0.651-0.521,1.404-0.618,2.2-0.543c5.277,0.052,10.536,0.714,15.822,0.519
		c4.793-0.015,6.708,2.835,6.858,7.162C522.216,270.949,522.096,274.902,522.088,278.853z"/>
	<path fill-rule="evenodd" clip-rule="evenodd" fill="#0385F9" d="M425.388,253.962c0.534,0.331,1.069,0.662,1.603,0.993
		c2.398,6.668,1.967,13.369,0.232,20.085c-0.413,0.409-0.827,0.819-1.239,1.231C423.972,268.884,425.12,261.411,425.388,253.962z"/>
	<path fill-rule="evenodd" clip-rule="evenodd" fill="#1287F1" d="M515.221,259.843c-5.497,1.76-10.99,1.367-16.479-0.043
		c2.837-4.155,6.185-2.156,9.481-0.789c1.418-1.035,0.217-3.261,1.896-4.179C510.26,258.09,511.957,259.764,515.221,259.843z"/>
	<path fill-rule="evenodd" clip-rule="evenodd" fill="#0385FB" d="M488.176,191.093c-1.125,0.214-2.336-0.07-3.49,0.045
		c-2.568,0.255-3.922-0.306-3.895-3.413c0.027-3.023,0.83-4.323,3.966-3.938c1.64,0.202,3.327-0.014,4.992,0.024
		c1.96,0.044,2.992-0.563,3.145-2.817c0.269-3.976-0.054-7.027-5.315-5.975c-0.961,0.192-1.996-0.019-2.992,0.032
		c-2.149,0.11-3.771,0.077-3.788-2.994c-0.016-2.958,1.338-3.249,3.638-3.107c1.991,0.122,4.014-0.152,5.99,0.058
		c3.404,0.361,3.365-1.762,3.209-4.07c-0.146-2.163,0.835-4.89-3.133-4.767c-5.657,0.174-11.329,0.163-16.986-0.031
		c-3.025-0.104-3.634,1.236-3.556,3.893c0.15,5.159,0.044,10.325,0.05,15.489c0.006,5.663,0.075,11.327-0.026,16.988
		c-0.044,2.443,0.592,3.643,3.351,3.562c5.658-0.167,11.326-0.107,16.988,0.008c2.282,0.046,3.197-0.667,3.379-3.08
		C494.018,192.805,493.223,190.135,488.176,191.093z"/>
	<path fill-rule="evenodd" clip-rule="evenodd" fill="#0385FB" d="M596.668,346.563c-3.764-11.144-7.465-22.309-11.234-33.45
		c-0.351-1.034-0.268-2.748-1.65-2.813c-4.139-0.197-8.36-0.547-12.419,0.052c-2.94,0.435-2.448,4.014-3.192,6.206
		c-3.714,10.935-7.17,21.958-10.816,33.255c1.739,0.092,2.886,0.151,4.031,0.213c4.342,0.235,8.838,0.815,9.316-5.548
		c0.133-1.76,1.646-1.773,3.033-1.76c2.492,0.025,4.984,0.012,7.478,0.008c1.362-0.002,3.108,0.004,3.169,1.646
		c0.258,7.097,5.393,5.461,9.625,5.7C596.858,350.232,597.543,349.155,596.668,346.563z"/>
	<path fill-rule="evenodd" clip-rule="evenodd" fill="#0385FB" d="M491.277,373.25c-3.508-10.708-3.467-10.721-14.388-10.219
		c-0.333,0.015-0.667,0.021-0.999,0.01c-1.508-0.051-2.364,0.512-2.869,2.097c-3.974,12.46-8.051,24.888-12.264,37.842
		c3.667,0,6.786,0.017,9.905-0.011c0.999-0.009,2.189-0.054,2.236-1.393c0.225-6.483,4.515-6.315,9.348-6.328
		c3.807-0.01,6,0.942,6.523,4.87c0.16,1.212,0.041,2.843,2.026,2.845c3.337,0.003,6.673,0.001,10.393,0.001
		C497.675,392.445,494.426,382.864,491.277,373.25z"/>
	<path fill-rule="evenodd" clip-rule="evenodd" fill="#E5F6FA" d="M380.414,229.565c1.346,4.953,2.425,8.738,3.38,12.555
		c0.287,1.145,1.535,2.875-0.263,3.411c-1.8,0.536-3.98,0.508-5.81,0.027c-1.661-0.437-0.882-2.291-0.608-3.453
		C378.012,238.285,379.095,234.509,380.414,229.565z"/>
	<path fill-rule="evenodd" clip-rule="evenodd" fill="#FDFDFC" d="M525.316,283.146c0.845,10.963,0.227,21.941,0.3,32.912
		c0.012,1.754-0.68,3.702-2.637,3.696c-11.241-0.035-22.533,1.538-33.713-0.867c-0.11-11.148-0.215-22.297-0.332-33.444
		c-0.028-2.708,1.476-4.031,3.989-4.046c9.656-0.056,19.314-0.008,28.973,0.018C523.305,281.419,524.484,281.961,525.316,283.146z"
		/>
	<path fill-rule="evenodd" clip-rule="evenodd" fill="#FAFCFB" d="M495.217,256.35c-0.191,1.296-0.382,2.592-0.582,3.959
		c-1.74,0.555-2.24-2.421-4.201-1.474c-0.98,1.82,1.623,2.144,1.618,3.675c-0.929,1.245-2.885-0.11-3.796,1.324
		c3.191,3.062,4.568,6.734,3.713,11.151c-1.212,0.812-2.582,0.484-3.884,0.485c-18.281,0.021-36.562,0.023-54.843,0.009
		c-5.123-0.005-5.642-0.522-5.716-5.713c-0.055-3.821,0.138-7.652-0.059-11.464c-0.152-2.942,0.83-4.3,3.889-4.3
		c20.109,0.003,40.218-0.023,60.327,0.046C493.236,254.055,495.217,253.786,495.217,256.35z"/>
	<path fill-rule="evenodd" clip-rule="evenodd" fill="#DCFBFC" d="M495.217,256.35c-1.273-1.921-3.264-1.319-5.008-1.323
		c-19.112-0.035-38.225,0.103-57.333-0.119c-4.141-0.048-4.949,1.41-4.937,5.17c0.047,14.861-0.066,14.863,14.673,14.874
		c16.452,0.013,32.905,0.022,49.357,0.034c0.067,0.326,0.023,0.637-0.134,0.933c-19.426-0.028-38.851-0.05-58.275-0.092
		c-2.138-0.005-4.331,0.311-6.338-0.787c-0.076-6.694-0.154-13.389-0.231-20.084c0.368-0.324,0.736-0.648,1.104-0.973
		c1.062-0.696,2.26-0.458,3.407-0.458c24.167-0.013,48.333-0.011,72.499-0.006c0.994,0,2.006-0.107,2.952,0.335
		c1.975,1.338,0.88,3.431,1.27,5.158c-3.057,1.512-6.477-1.377-9.48,0.787c-0.516,0.023-1.031,0.045-1.545,0.067
		C496.814,258.539,497.463,256.628,495.217,256.35z"/>
	<path fill-rule="evenodd" clip-rule="evenodd" fill="#F3FCFC" d="M497.204,262.125c5.431-0.073,10.866-0.048,16.292-0.251
		c4.746-0.177,6.515,2.234,6.436,6.643c-0.062,3.458-0.02,6.917-0.022,10.376c-4.354,0.856-2.767-2.495-2.833-4.294
		c-0.147-4.038,0.582-8.373-5.047-9.412c-1.961,1.687-4.35,0.978-6.576,1.165c-1.897,0.159-4.004-0.403-5.346,1.599
		c-1.924,3.359,0.771,7.717-2.339,10.811c-0.915,0.13-1.987,0.707-2.617-0.384C493.794,276.028,495.336,264.282,497.204,262.125z"/>
	<path fill-rule="evenodd" clip-rule="evenodd" fill="#3383CE" d="M497.769,278.761c0.503-3.905-1.339-8.053,1.208-11.748
		c1.161,0.451,2.639-1.196,3.609,0.542c0.412,1.198-0.077,2.244-0.517,3.318c-0.595,1.456-1.042,3.061,1.079,3.538
		c1.93,0.434,3.125-0.6,3.455-2.574c0.268-1.6,0.004-3.325,1.099-4.737c1.36,0.289,2.976-0.813,4.118,0.754
		c1.429,9.3-1.379,11.739-11.682,10.167C499.348,278.268,498.559,278.515,497.769,278.761z"/>
	<path fill-rule="evenodd" clip-rule="evenodd" fill="#D0EAF7" d="M500.139,278.021c0.99-0.003,1.98,0.001,2.971-0.012
		c6.533-0.085,7.274-0.831,7.551-7.452c0.048-1.147,0.234-2.289,0.357-3.434c0.605-0.733,1.246-0.681,1.913-0.09
		c3.412,3.103,1.659,7.121,1.883,10.781c0.046,0.749-0.585,1.265-1.28,1.23C509.061,278.824,504.455,280.251,500.139,278.021z"/>
	<path fill-rule="evenodd" clip-rule="evenodd" fill="#0A89F5" d="M512.931,267.033c-0.637,0.029-1.272,0.059-1.911,0.089
		c-1.031,1.412-2.107,0.822-3.188,0.074c-1.951,1.42-3.863,1.286-5.744-0.144c-1.031-0.368-2.129,4.187-3.111-0.04
		c3.903-3.812,8.674-1.417,13.053-1.826C512.33,265.803,512.631,266.418,512.931,267.033z"/>
	<path fill-rule="evenodd" clip-rule="evenodd" fill="#6799C8" d="M506.953,253.854c-26.287,0.043-52.574,0.086-78.859,0.129
		c0.965-1.303,2.383-0.971,3.674-0.972c23.811-0.013,47.621-0.014,71.431,0.003C504.494,253.015,505.898,252.703,506.953,253.854z"
		/>
	<path fill-rule="evenodd" clip-rule="evenodd" fill="#E0F3F9" d="M577.516,317.593c1.336,4.94,2.453,8.871,3.432,12.837
		c0.253,1.023,0.9,2.579-0.509,3.069c-1.999,0.695-4.271,0.831-6.216-0.102c-1.346-0.646-0.379-2.101-0.122-3.12
		C575.086,326.356,576.191,322.465,577.516,317.593z"/>
	<path fill-rule="evenodd" clip-rule="evenodd" fill="#ECF8F9" d="M480.711,371.783c2.486,4.569,2.563,8.975,4.104,12.889
		c0.287,0.731,0.318,1.944-0.718,2.023c-2.123,0.16-4.296,0.152-6.399-0.141c-0.968-0.135-0.64-1.387-0.438-2.146
		C478.301,380.479,479.397,376.563,480.711,371.783z"/>
	<path fill-rule="evenodd" clip-rule="evenodd" fill="#1088F4" d="M510.797,300.965c0.003,0.028,0.226,0.862,0.143,1.665
		c-0.172,1.674,2.314,3.835,0.035,4.814c-1.969,0.846-4.551,0.278-6.861,0.294c-0.301,0.002-0.68-0.166-0.893-0.383
		c-1.146-1.168,1.094-12.427,2.575-13.064C508.908,292.953,510.961,295.353,510.797,300.965z"/>
	<path fill-rule="evenodd" clip-rule="evenodd" fill="#1A89EB" d="M440.242,261.059c1.755-0.272,2.162-2.188,3.732-1.861
		c0.727,0.584,0.681,0.746-1.152,4.173c1.041,0.941,3.058-0.372,3.702,1.581c-0.747,1.937-2.73,0.513-4.014,1.599
		c0.758,1.153,1.542,2.346,2.305,3.507c-2.252,2.157-2.735-1.632-4.82-0.458c-0.548,0.605,0.286,2.617-1.916,3.437
		c-0.423-3.126-1.816-4.676-4.646-2.098c-1.163-2.236,1.401-2.737,1.251-4.336c-0.806-1.256-2.943,0.164-3.844-2.032
		c3.895-0.313,3.923-2.383,1.863-5.682c3.535,2.644,4.997,1.06,5.587-1.9C440.602,257.847,439.373,259.848,440.242,261.059z"/>
	<path fill-rule="evenodd" clip-rule="evenodd" fill="#1E8AEB" d="M484.393,264.957c-1.225,0.28-2.449,0.562-3.577,0.819
		c-0.215,1.928,2.185,2.351,1.66,4.476c-1.935-0.145-5.157-3.15-5.369,2.729c-1.08-4.36-2.792-5.276-5.326-2.282
		c-1.533-2.068,0.783-2.936,0.775-4.198c-0.013-2.096-2.792-0.271-3.476-2.371c2.982-0.52,4.155-2.135,1.695-5.427
		c2.95,1.31,5.666,2.987,5.406-2.172c2.123,2.794,3.479,3.28,6.371,2.302C482.266,261.07,478.91,264.755,484.393,264.957z"/>
	<path fill-rule="evenodd" clip-rule="evenodd" fill="#1B8BEE" d="M454.104,263.388c-0.766-1.188-1.537-2.381-2.625-4.068
		c2.597-0.205,6.444,3.406,6.198-3.208c0.87,4.135,2.38,5.339,5.734,2.542c-1.6,3.975-3.614,7.274-0.159,11.006
		c0.735,0.794-1.568,0.583-2.503-0.249c-0.341-0.304-0.817-0.456-1.195-0.657c-1.281,1.061,0.076,3.105-1.704,3.929
		c-1.758-0.892-0.484-2.759-1.337-3.914c-1.705-0.363-2.111,2.095-4.146,1.761c-1.01-1.611,3.463-5.859-2.433-5.213
		C450.878,262.937,452.748,264.199,454.104,263.388z"/>
	<path fill-rule="evenodd" clip-rule="evenodd" fill="#E9F9FB" d="M502.088,267.053c1.914,0.048,3.828,0.096,5.743,0.144
		c0.086,1.484,0.225,2.968,0.241,4.452c0.02,1.632,0.3,3.627-1.938,3.961c-1.906,0.284-4.372,0.983-5.678-0.533
		c-1.239-1.441-1.086-3.632,0.705-5.303C501.779,269.197,501.797,267.979,502.088,267.053z"/>
</g>
</svg>
